<svg xmlns="http://www.w3.org/2000/svg" xmlns:xlink="http://www.w3.org/1999/xlink" version="1.1" x="0px" y="0px" width="100px" height="100px" viewBox="0 0 100 100" enable-background="new 0 0 100 100" xml:space="preserve">
<g id="Captions">
	<rect x="-192" width="185" height="99"/>
	<rect y="-36" width="100" height="30"/>
	<text transform="matrix(1 0 0 1 66 -19.5)" fill="#000000" font-family="'Helvetica'" font-size="2.4">http://thenounproject.com</text>
	<text transform="matrix(1 0 0 1 7.166 -24.5)"><tspan x="0" y="0" fill="#000000" font-family="'Helvetica-Bold'" font-size="6.1578">The Noun Project</tspan><tspan x="1.12" y="4.8" fill="#000000" font-family="'Helvetica-Bold'" font-size="4">Icon Template</tspan></text>
	<text transform="matrix(1 0 0 1 -178.5 10.5)" fill="#000000" font-family="'Helvetica-Bold'" font-size="6.1578">Reminders</text>
	<line fill="#000000" stroke="#FFFFFF" stroke-miterlimit="10" x1="8" y1="-14.5" x2="18" y2="-14.5"/>
	<line fill="#000000" stroke="#FFFFFF" stroke-miterlimit="10" x1="-179" y1="16.5" x2="-162" y2="16.5"/>
	<g>
		<g>
			<g>
				<rect x="-170.802" y="31.318" fill="#000000" width="8.721" height="8.642"/>
				<path fill="#000000" d="M-164.455,42.312h4.747v-4.703h-4.747V42.312z M-159.266,42.749h-5.63V37.17h5.63V42.749      L-159.266,42.749z M-166.221,44.062h8.279v-8.203h-8.279V44.062L-166.221,44.062z M-157.5,44.5h-9.163v-9.079h9.163V44.5      L-157.5,44.5z"/>
				<polygon fill="#000000" points="-166.149,44.133 -166.292,43.991 -158.013,35.787 -157.871,35.929     "/>
			</g>
		</g>
	</g>
	<rect x="-179" y="58" fill="none" width="35" height="32.5"/>
	<text transform="matrix(1 0 0 1 -179 60.1572)"><tspan x="0" y="0" fill="#000000" font-family="'Helvetica-Bold'" font-size="3">Strokes</tspan><tspan x="0" y="5" fill="#000000" font-family="'Helvetica'" font-size="2.4">Try to keep strokes at 4px</tspan><tspan x="0" y="10" fill="#000000" font-family="'Helvetica'" font-size="2.4">Minimum stroke weight is 2px</tspan><tspan x="0" y="14.5" fill="#000000" font-family="'Helvetica'" font-size="2.4">For thicker strokes use even </tspan><tspan x="0" y="17.5" fill="#000000" font-family="'Helvetica'" font-size="2.4">numbers: 6px, 8px etc.</tspan><tspan x="0" y="22" fill="#000000" font-family="'Helvetica-Bold'" font-size="2.4">Remember to expand strokes </tspan><tspan x="0" y="25" fill="#000000" font-family="'Helvetica-Bold'" font-size="2.4">before saving as an SVG </tspan></text>
	<rect x="-136.5" y="58" fill="none" width="35" height="32.5"/>
	<text transform="matrix(1 0 0 1 -136.5 60.1572)"><tspan x="0" y="0" fill="#000000" font-family="'Helvetica-Bold'" font-size="3">Size</tspan><tspan x="0" y="5" fill="#000000" font-family="'Helvetica'" font-size="2.4">Cannot be wider or taller than </tspan><tspan x="0" y="8.5" fill="#000000" font-family="'Helvetica'" font-size="2.4">100px (artboard size)</tspan><tspan x="0" y="13.5" fill="#000000" font-family="'Helvetica'" font-size="2.4">Scale your icon to fill as much of </tspan><tspan x="0" y="16.5" fill="#000000" font-family="'Helvetica'" font-size="2.4">the artboard as possible</tspan></text>
	<rect x="-94" y="58" fill="none" width="35" height="32.5"/>
	<text transform="matrix(1 0 0 1 -94 60.1572)"><tspan x="0" y="0" fill="#000000" font-family="'Helvetica-Bold'" font-size="3">Ungroup</tspan><tspan x="0" y="5" fill="#000000" font-family="'Helvetica'" font-size="2.4">If your design has more than one </tspan><tspan x="0" y="8" fill="#000000" font-family="'Helvetica'" font-size="2.4">shape, make sure to ungroup</tspan></text>
	<rect x="-50" y="58" fill="none" width="35" height="32.5"/>
	<text transform="matrix(1 0 0 1 -50 60.1572)"><tspan x="0" y="0" fill="#000000" font-family="'Helvetica-Bold'" font-size="3">Save as</tspan><tspan x="0" y="5" fill="#000000" font-family="'Helvetica'" font-size="2.4">Save as .SVG and make sure </tspan><tspan x="0" y="8" fill="#000000" font-family="'Helvetica'" font-size="2.4">&#8220;Use Artboards&#8221; is checked</tspan></text>
	<text transform="matrix(1.0074 0 0 1 -125.542 30.5933)" fill="#000000" font-family="'Helvetica'" font-size="2.5731">100px</text>
	<text transform="matrix(1.0074 0 0 1 -41 39)" fill="#000000" font-family="'Helvetica-Bold'" font-size="5.1462">.SVG</text>
	<rect x="-126.514" y="34.815" fill="#000000" width="10.261" height="10.185"/>
	<rect x="-126.477" y="31.766" fill="#000000" width="0.522" height="2.337"/>
	<rect x="-116.812" y="31.766" fill="#000000" width="0.523" height="2.337"/>
	<rect x="-127" y="32.337" fill="#000000" width="11.233" height="0.572"/>
	<g>
		<rect x="-83.805" y="33.844" fill="#000000" width="10.305" height="10.156"/>
		<rect x="-76.809" y="28.707" fill="#000000" width="3.308" height="3.261"/>
	</g>
	<rect x="-178.5" y="22.5" fill="#000000" stroke="#FFFFFF" stroke-miterlimit="10" width="30" height="30"/>
	<rect x="-136.5" y="22.5" fill="#000000" stroke="#FFFFFF" stroke-miterlimit="10" width="30" height="30"/>
	<rect x="-93.5" y="22.5" fill="#000000" stroke="#FFFFFF" stroke-miterlimit="10" width="30" height="30"/>
	<rect x="-49.5" y="22.5" fill="#000000" stroke="#FFFFFF" stroke-miterlimit="10" width="30" height="30"/>
</g>
<g id="Your_Icon">
	<g>
		<path d="M76.417,93.014c-0.583,0-1.161-0.254-1.557-0.742c-0.693-0.859-0.562-2.115,0.295-2.811l0,0    c0.752-0.613,2.806-2.621,3.272-4.521c1.326-5.402,3.355-18.268,3.376-18.396c0.172-1.092,1.198-1.834,2.286-1.664    c1.092,0.172,1.837,1.195,1.665,2.285c-0.084,0.535-2.075,13.164-3.442,18.73c-0.871,3.545-4.256,6.363-4.639,6.674    C77.304,92.867,76.858,93.014,76.417,93.014z"/>
	</g>
	<path d="M82.354,13.032c-0.543-0.039-1.07-0.059-1.579-0.059c-11.122,0-15.135,9.162-15.688,13.91l-8.874,53.191   c-0.03,0.152-2.909,15.264,13.711,19.754l0.318,0.059c0.662,0.068,1.323,0.102,1.966,0.102c11.794,0,15.873-10.984,16.041-11.453   l0.062-0.176l9.33-58.659l0.024-0.292C97.723,24.132,94.598,13.919,82.354,13.032z M84.423,87.338   c-0.495,1.229-3.833,8.65-12.216,8.65c-0.456,0-0.926-0.021-1.399-0.064C58.04,92.379,60.041,81.336,60.145,80.803l3.883-23.277   c3.058,2.369,8.312,5.391,15.258,5.391c2.832,0,5.946-0.508,9.303-1.762L84.423,87.338z M90.976,31.292   c-1.267,1.642-3.621,1.945-5.265,0.682c-1.641-1.268-1.943-3.623-0.679-5.264c1.267-1.642,3.623-1.947,5.264-0.679   C91.938,27.295,92.241,29.65,90.976,31.292z"/>
	<path d="M53.357,65.312l-0.029-0.186L33.672,9.079L33.554,8.81C31.098,4.139,23.496-3.363,12.301,1.672   c-0.497,0.224-0.97,0.459-1.418,0.699C1.097,7.655,1.918,17.624,3.688,22.065l17.46,51.021c0.046,0.148,4.691,14.814,21.448,10.867   l0.309-0.098c0.615-0.254,1.213-0.539,1.778-0.844C55.061,77.408,53.431,65.803,53.357,65.312z M15.812,45.145L7.439,20.684   c-0.163-0.418-4.006-10.662,6.502-15.361c10.049-4.52,15.355,4.085,16.01,5.236l9.135,26.046   C30.441,48.291,19.201,46.14,15.812,45.145z M45.968,73.885c-0.184,0.438-0.505,0.777-0.895,0.988   c-0.513,0.277-1.143,0.328-1.723,0.086c-1.018-0.426-1.499-1.596-1.075-2.613c0.371-0.896,1.224-3.639,0.731-5.533   c-1.399-5.383-5.726-17.667-5.768-17.791c-0.368-1.043,0.183-2.184,1.22-2.552c1.042-0.366,2.184,0.181,2.552,1.222   c0.181,0.51,4.427,12.568,5.868,18.115C47.797,69.342,46.157,73.43,45.968,73.885z"/>
	<path d="M25.465,9.338c2.045,0.334,3.432,2.262,3.098,4.307c-0.335,2.047-2.262,3.432-4.309,3.102   c-2.047-0.337-3.432-2.266-3.099-4.311C21.49,10.389,23.419,9.002,25.465,9.338z"/>
</g>
</svg>